<?xml version="1.0" encoding="utf-8"?>
<!-- Generator: Adobe Illustrator 27.5.0, SVG Export Plug-In . SVG Version: 6.00 Build 0)  -->
<svg version="1.1" xmlns="http://www.w3.org/2000/svg" xmlns:xlink="http://www.w3.org/1999/xlink" x="0px" y="0px"
	 viewBox="0 0 3710 3710" style="enable-background:new 0 0 3710 3710;" xml:space="preserve">
<g id="Background">
	<g>
		<g>
			<rect style="fill:#FFFFFF;" width="3710" height="3710"/>
		</g>
	</g>
</g>
<g id="Illustration">
	<g>
		<linearGradient id="SVGID_1_" gradientUnits="userSpaceOnUse" x1="3486.374" y1="3663.0762" x2="1529.0676" y2="1579.4924">
			<stop  offset="0" style="stop-color:#DAE3FE"/>
			<stop  offset="1" style="stop-color:#E9EFFD"/>
		</linearGradient>
		<path style="fill:url(#SVGID_1_);" d="M2898.694,2827.151c-72.256,74.479-136.907,118.26-186.407,151.312
			c-482.761,322.344-1034.61,229.437-1205.229,197.681c-275.271-51.234-507.638-87.377-707.283-267.748
			c-453.653-409.858-431.588-1264.851-84.942-1794.483c41.102-62.799,387.223-575.859,940.267-648.153
			c13.527-1.768,23.619-2.775,32.459-3.711c85.554-9.058,615.719-56.866,1048.016,305.312
			c61.881,51.844,161.466,145.357,253.813,287.98C3327.052,1576.835,3328.122,2384.514,2898.694,2827.151z"/>
		<g>
			<g>
				<g style="opacity:0.3;">
					<path style="fill:#91B3FA;" d="M1142.153,885.762c-2.869,4.745-9.042,6.263-13.783,3.393
						c-9.215-5.573-18.808-10.831-28.515-15.624c-4.912-2.425-6.96-8.332-4.639-13.267c0.027-0.059,0.055-0.117,0.083-0.177
						c2.454-4.97,8.474-7.008,13.445-4.553c10.217,5.046,20.317,10.579,30.017,16.448c4.436,2.682,6.05,8.257,3.891,12.847
						C1142.504,885.145,1142.339,885.458,1142.153,885.762z M1051.007,853.441c-10.265-3.424-20.773-6.441-31.242-8.969
						c-5.384-1.3-8.7-6.722-7.4-12.111c1.324-5.404,6.726-8.701,12.115-7.399c11.014,2.659,22.076,5.834,32.877,9.435
						c5.258,1.754,8.099,7.44,6.345,12.698c-0.128,0.382-0.276,0.752-0.443,1.107
						C1061.123,852.74,1055.883,855.067,1051.007,853.441z M967.712,835.681c-10.74-1.05-21.655-1.646-32.45-1.769
						c-5.541-0.063-9.984-4.61-9.921-10.151c0.07-5.537,4.608-9.981,10.151-9.921c11.367,0.13,22.865,0.758,34.172,1.865
						c5.517,0.539,9.55,5.45,9.013,10.966c-0.116,1.176-0.429,2.285-0.905,3.296C976.018,833.698,972.052,836.106,967.712,835.681z
						 M882.537,836.996c-10.716,1.378-21.496,3.24-32.043,5.527c-5.417,1.174-10.762-2.265-11.937-7.681
						c-1.169-5.417,2.27-10.758,7.681-11.937c11.106-2.408,22.455-4.365,33.732-5.82c5.497-0.707,10.529,3.176,11.236,8.673
						c0.253,1.967-0.081,3.874-0.867,5.545C888.929,834.303,886.066,836.539,882.537,836.996z M799.778,857.253
						c-10.118,3.715-20.221,7.916-30.024,12.49c-5.026,2.341-10.996,0.168-13.339-4.855c-2.345-5.026-0.169-10.998,4.856-13.336
						c10.313-4.811,20.944-9.231,31.59-13.14c5.202-1.912,10.969,0.757,12.879,5.962c0.963,2.622,0.763,5.387-0.339,7.73
						C804.317,854.41,802.359,856.306,799.778,857.253z M723.564,895.318c-9.06,5.868-17.977,12.199-26.51,18.818
						c-4.379,3.397-10.686,2.601-14.081-1.777c-3.399-4.38-2.605-10.683,1.776-14.083c8.978-6.966,18.368-13.629,27.901-19.806
						c4.653-3.012,10.865-1.685,13.881,2.968c1.958,3.022,2.081,6.702,0.654,9.737C726.415,892.812,725.196,894.261,723.564,895.318
						z M539.811,1219.569c-5.542-0.072-9.977-4.624-9.905-10.167c0.15-11.354,0.799-22.857,1.928-34.184
						c0.55-5.517,5.467-9.542,10.983-8.99c5.513,0.548,9.539,5.465,8.989,10.98c-1.073,10.755-1.687,21.677-1.828,32.459
						c-0.02,1.479-0.357,2.878-0.949,4.135C547.408,1217.254,543.875,1219.624,539.811,1219.569z M657.723,949.296
						c-7.523,7.732-14.802,15.885-21.633,24.236c-3.512,4.29-9.836,4.922-14.125,1.412c-4.292-3.512-4.9-9.819-1.41-14.124
						c7.194-8.792,14.859-17.379,22.783-25.521c3.865-3.972,10.219-4.06,14.193-0.193c3.151,3.065,3.857,7.698,2.085,11.465
						C659.155,947.552,658.521,948.474,657.723,949.296z M548.575,1132.536c-5.384-1.311-8.687-6.742-7.376-12.128
						c2.689-11.031,5.89-22.092,9.507-32.876c1.741-5.268,7.454-8.083,12.709-6.323c5.254,1.763,8.084,7.453,6.322,12.709
						c-3.439,10.249-6.481,20.761-9.033,31.244c-0.163,0.669-0.392,1.304-0.674,1.903
						C558.04,1131.295,553.289,1133.686,548.575,1132.536z M605.607,1016.622c-5.6,9.215-10.876,18.793-15.679,28.472
						c-2.462,4.968-8.484,6.994-13.451,4.53c-4.9-2.432-6.939-8.331-4.621-13.258c0.03-0.064,0.061-0.13,0.094-0.192
						c5.053-10.191,10.607-20.276,16.499-29.975c2.882-4.736,9.054-6.243,13.792-3.365c4.424,2.687,6.03,8.254,3.875,12.837
						C605.964,1015.993,605.793,1016.311,605.607,1016.622z"/>
					<path style="fill:#91B3FA;" d="M554.485,1284.066c0.841-1.788,1.166-3.843,0.81-5.94c-0.867-5.102-1.638-10.306-2.302-15.471
						c-0.703-5.497-5.732-9.385-11.228-8.68c-5.499,0.702-9.393,5.731-8.679,11.231c0.694,5.432,1.508,10.906,2.418,16.275
						c0.927,5.464,6.11,9.145,11.571,8.218C550.445,1289.128,553.133,1286.939,554.485,1284.066z"/>
				</g>
				<g style="opacity:0.3;">
					<path style="fill:#91B3FA;" d="M719.395,1541.813c2.062-4.383,0.698-9.736-3.432-12.554c-4.275-2.914-8.561-5.968-12.736-9.075
						c-4.448-3.31-10.735-2.387-14.044,2.059c-3.322,4.466-2.385,10.736,2.06,14.044c4.397,3.27,8.91,6.487,13.411,9.557
						c4.579,3.122,10.823,1.941,13.947-2.638C718.907,1542.757,719.17,1542.29,719.395,1541.813z"/>
					<path style="fill:#91B3FA;" d="M1284.583,1403.435c-2.601,4.894-8.679,6.753-13.576,4.149
						c-4.893-2.603-6.744-8.67-4.148-13.573c4.954-9.318,9.587-18.992,13.83-28.86c2.162-5.075,8.094-7.445,13.186-5.255
						c5.092,2.189,7.445,8.092,5.258,13.185c-1.838,4.276-3.74,8.505-5.706,12.683
						C1290.623,1391.726,1287.648,1397.672,1284.583,1403.435z M1304.924,1328.473c-5.339-1.48-8.47-7.01-6.989-12.35
						c2.839-10.256,5.28-20.741,7.246-31.167c1.009-5.443,6.275-9.03,11.723-8.003c5.444,1.027,9.027,6.276,8,11.722
						c-2.07,10.977-4.636,22.016-7.628,32.807c-0.155,0.56-0.355,1.096-0.594,1.603
						C1314.64,1327.428,1309.708,1329.798,1304.924,1328.473z M1255.662,1449.854c-6.54,9.05-13.557,17.946-20.861,26.436
						c-3.615,4.203-9.952,4.679-14.156,1.064c-4.201-3.614-4.672-9.946-1.063-14.154c6.937-8.062,13.6-16.507,19.809-25.102
						c3.248-4.492,9.521-5.504,14.016-2.257c3.974,2.872,5.221,8.114,3.207,12.396
						C1256.351,1448.794,1256.035,1449.337,1255.662,1449.854z M1320.817,1243.875c-5.535-0.27-9.807-4.979-9.533-10.514
						c0.52-10.613,0.591-21.374,0.213-31.984c-0.2-5.544,4.13-10.19,9.673-10.387c5.539-0.198,10.188,4.131,10.386,9.67
						c0.398,11.174,0.323,22.507-0.224,33.682c-0.068,1.35-0.394,2.626-0.937,3.779
						C1328.716,1241.691,1325.001,1244.08,1320.817,1243.875z M1196.4,1515.176c-8.366,7.386-17.165,14.516-26.155,21.194
						c-4.449,3.306-10.733,2.38-14.039-2.068c-3.309-4.45-2.38-10.737,2.069-14.043c8.538-6.345,16.897-13.117,24.84-20.132
						c4.156-3.669,10.5-3.274,14.168,0.882c2.733,3.097,3.21,7.406,1.558,10.919
						C1198.276,1513.131,1197.459,1514.242,1196.4,1515.176z M1124.249,1565.917c-9.801,5.391-19.944,10.431-30.147,14.982
						c-5.064,2.256-10.997-0.017-13.255-5.08c-2.26-5.07,0.015-11.002,5.081-13.253c9.694-4.324,19.333-9.114,28.648-14.236
						c4.857-2.672,10.96-0.9,13.632,3.957c1.608,2.927,1.604,6.307,0.283,9.114
						C1127.62,1563.255,1126.177,1564.857,1124.249,1565.917z M1042.751,1599.731c-10.748,3.131-21.75,5.841-32.692,8.06
						c-5.435,1.1-10.728-2.411-11.83-7.843c-1.102-5.44,2.413-10.729,7.843-11.83c10.4-2.105,20.85-4.683,31.066-7.659
						c5.322-1.55,10.893,1.508,12.442,6.829c0.713,2.445,0.453,4.94-0.551,7.075
						C1047.845,1596.878,1045.629,1598.892,1042.751,1599.731z M955.819,1614.961c-11.172,0.705-22.503,0.94-33.679,0.698
						c-5.541-0.119-9.938-4.709-9.817-10.252c0.12-5.532,4.712-9.934,10.253-9.815c10.611,0.229,21.369,0.006,31.983-0.664
						c5.532-0.349,10.298,3.851,10.646,9.383c0.11,1.748-0.234,3.417-0.93,4.896C962.767,1612.412,959.606,1614.72,955.819,1614.961
						z M867.62,1610.714c-11.025-1.77-22.121-4.036-32.982-6.735c-5.38-1.337-8.659-6.783-7.32-12.162
						c1.335-5.362,6.779-8.656,12.16-7.319c10.318,2.565,20.856,4.716,31.329,6.4c5.471,0.877,9.196,6.028,8.316,11.5
						c-0.153,0.953-0.434,1.854-0.825,2.686C876.441,1609.027,872.139,1611.44,867.62,1610.714z M782.594,1587.228
						c-7.646-3.042-15.293-6.357-22.725-9.853c-2.693-1.266-5.36-2.558-8.011-3.876c-4.961-2.467-7.112-8.477-4.516-13.453
						c2.465-4.964,8.49-6.987,13.455-4.52c2.518,1.251,5.058,2.483,7.616,3.686c7.067,3.324,14.332,6.475,21.602,9.368
						c5.15,2.048,7.663,7.885,5.614,13.034c-0.078,0.193-0.159,0.384-0.247,0.571
						C793.142,1586.947,787.549,1589.202,782.594,1587.228z"/>
					<path style="fill:#91B3FA;" d="M1325.013,1151.989c0.849-1.806,1.171-3.879,0.803-5.991
						c-0.935-5.353-2.001-10.786-3.169-16.151c-1.178-5.417-6.524-8.853-11.94-7.674c-5.416,1.18-8.854,6.519-7.674,11.94
						c1.108,5.096,2.12,10.258,3.01,15.34c0.951,5.458,6.151,9.112,11.612,8.159
						C1321.002,1157.025,1323.67,1154.844,1325.013,1151.989z"/>
				</g>
				<g>
					<path style="fill:#91B3FA;" d="M1184.325,1052.935c-0.866-1.805-2.779-2.862-4.768-2.633l-56.717,6.531
						c-16.698-20.786-36.831-39.058-59.948-53.836l0.379-57.054c0.013-2.002-1.245-3.79-3.133-4.455l-64.59-22.753
						c-1.888-0.666-3.99-0.06-5.233,1.508l-35.464,44.695c-27.276-2.974-54.417-1.355-80.456,4.376l-40.101-40.637
						c-1.406-1.424-3.561-1.8-5.365-0.935l-61.761,29.583c-1.804,0.864-2.863,2.779-2.633,4.767l6.531,56.717
						c-20.786,16.698-39.059,36.83-53.837,59.949l-57.054-0.379c-2.002-0.013-3.791,1.244-4.455,3.132l-22.754,64.591
						c-0.664,1.888-0.058,3.989,1.509,5.233l44.695,35.465c-2.974,27.276-1.355,54.417,4.377,80.455l-40.638,40.101
						c-1.424,1.406-1.801,3.56-0.935,5.365l29.583,61.762c0.864,1.804,2.779,2.862,4.766,2.633l56.719-6.531
						c16.697,20.786,36.83,39.058,59.948,53.836l-0.378,57.054c-0.014,2.001,1.244,3.791,3.131,4.455l64.591,22.753
						c1.888,0.665,3.989,0.059,5.232-1.509l35.465-44.695c27.276,2.974,54.417,1.354,80.456-4.376l40.101,40.637
						c1.405,1.425,3.559,1.8,5.365,0.936l61.761-29.584c1.805-0.865,2.862-2.779,2.633-4.767l-6.531-56.718
						c20.786-16.698,39.058-36.83,53.837-59.948l57.054,0.379c2,0.013,3.789-1.245,4.455-3.132l22.753-64.591
						c0.665-1.887,0.06-3.989-1.509-5.233l-44.694-35.464c2.974-27.276,1.353-54.417-4.377-80.456l40.637-40.101
						c1.425-1.405,1.8-3.561,0.936-5.365L1184.325,1052.935z"/>
					<g>
						<path style="fill:#BDD0FB;" d="M985.292,1251.776c-20.991,31.623-63.793,40.276-95.42,19.285
							c-15.321-10.167-25.764-25.693-29.405-43.715c-3.643-18.019-0.053-36.383,10.121-51.702
							c20.991-31.623,63.793-40.276,95.42-19.285c28.771,19.097,38.527,56.246,24.245,86.61
							C988.838,1245.978,987.184,1248.924,985.292,1251.776z M876.208,1224.164c2.793,13.819,10.799,25.721,22.547,33.519
							c24.245,16.091,57.067,9.459,73.159-14.787c16.106-24.248,9.46-57.067-14.788-73.161
							c-24.245-16.091-57.067-9.46-73.159,14.787c-1.459,2.199-2.738,4.476-3.841,6.821
							C875.336,1201.526,873.94,1212.933,876.208,1224.164z"/>
					</g>
					<path style="fill:#BDD0FB;" d="M1079.622,1286.558c2.453-5.215,4.658-10.583,6.599-16.093l0,0
						c0.612-1.734,1.194-3.479,1.75-5.232c2.736-8.645,4.78-17.495,6.101-26.411c0.018-0.121,0.036-0.243,0.055-0.364
						c0.05-0.345,0.099-0.69,0.145-1.036c0.095-0.672,0.182-1.346,0.269-2.018c0.226-1.77-0.737-3.416-2.269-4.139
						c-0.372-0.175-0.779-0.295-1.209-0.35c-2.199-0.28-4.203,1.281-4.486,3.477c-1.437,11.318-4.106,22.556-7.93,33.403
						c-18.974,53.89-63.854,91.388-115.756,103.474c-28.868,6.726-59.911,5.586-89.881-4.973c-5.256-1.85-10.38-3.953-15.353-6.294
						c-33.473-15.749-60.289-42.309-76.484-76.123c-18.605-38.839-20.971-82.601-6.663-123.218
						c29.559-83.884,121.791-128.038,205.637-98.501c5.17,1.821,10.229,3.897,15.155,6.217
						c21.352,10.047,40.268,24.654,55.339,42.84c0.39,0.469,0.863,0.828,1.381,1.07c1.362,0.641,3.034,0.485,4.271-0.542
						c1.704-1.421,1.95-3.944,0.528-5.654c-15.823-19.092-35.682-34.431-58.098-44.979c-5.172-2.435-10.481-4.613-15.906-6.526
						c-88.032-31.012-184.88,15.405-215.882,103.404c-15.022,42.642-12.537,88.581,6.995,129.355
						c17.001,35.499,45.153,63.381,80.293,79.916c5.222,2.456,10.601,4.663,16.115,6.607c42.645,15.021,88.585,12.538,129.358-6.992
						C1035.204,1349.871,1063.09,1321.707,1079.622,1286.558z"/>
				</g>
			</g>
			<g>
				<g style="opacity:0.3;">
					<path style="fill:#91B3FA;" d="M1527.761,687.476c1.141-2.427,0.61-5.406-1.501-7.276c-3.938-3.491-8.036-6.91-12.179-10.161
						c-2.693-2.112-6.586-1.643-8.703,1.051c-2.127,2.689-1.641,6.59,1.051,8.703c3.948,3.098,7.854,6.356,11.613,9.687
						c2.558,2.27,6.476,2.032,8.751-0.527C1527.194,688.497,1527.515,687.999,1527.761,687.476z"/>
					<path style="fill:#91B3FA;" d="M1489.024,659.82c-1.767,2.932-5.572,3.881-8.508,2.116c-7.406-4.45-15.126-8.573-22.944-12.25
						c-1.649-0.775-3.313-1.534-4.989-2.28c-3.124-1.393-4.533-5.056-3.141-8.184c1.433-2.905,5.056-4.533,8.188-3.143
						c1.753,0.781,3.494,1.576,5.219,2.388c8.195,3.854,16.29,8.177,24.055,12.847c2.749,1.651,3.755,5.101,2.418,7.944
						C1489.233,659.447,1489.132,659.633,1489.024,659.82z M1423.095,636.383c-10.018-3.063-20.316-5.535-30.605-7.341
						c-3.373-0.593-5.624-3.802-5.033-7.177c0.594-3.354,3.804-5.627,7.177-5.034c10.784,1.892,21.581,4.481,32.084,7.695
						c3.275,1.002,5.117,4.467,4.118,7.744c-0.088,0.286-0.199,0.565-0.324,0.831
						C1429.221,635.846,1426.079,637.294,1423.095,636.383z M1361.202,625.545c-10.448-0.515-21.036-0.378-31.479,0.406
						c-3.411,0.256-6.388-2.305-6.643-5.717c-0.255-3.425,2.297-6.392,5.716-6.647c10.95-0.824,22.06-0.963,33.014-0.427
						c3.419,0.169,6.059,3.077,5.889,6.496c-0.044,0.833-0.247,1.62-0.582,2.332C1366.08,624.193,1363.786,625.67,1361.202,625.545z
						 M1298.537,630.245c-10.27,2.066-20.509,4.79-30.413,8.096c-3.252,1.083-6.762-0.672-7.843-3.92
						c-1.078-3.24,0.669-6.756,3.916-7.842c10.394-3.467,21.122-6.321,31.895-8.489c3.356-0.676,6.626,1.501,7.302,4.857
						c0.267,1.353,0.079,2.692-0.468,3.854C1302.119,628.518,1300.539,629.842,1298.537,630.245z M1238.917,650.102
						c-9.455,4.5-18.717,9.626-27.538,15.238c-2.884,1.838-6.718,0.985-8.557-1.904c-1.839-2.889-0.993-6.722,1.904-8.557
						c9.242-5.882,18.954-11.255,28.86-15.974c3.093-1.469,6.791-0.157,8.261,2.932c0.831,1.746,0.775,3.686,0.012,5.308
						C1241.271,648.395,1240.263,649.459,1238.917,650.102z M1185.925,683.829c-8.068,6.658-15.794,13.881-22.965,21.476
						c-2.348,2.488-6.274,2.601-8.761,0.251c-2.487-2.351-2.601-6.261-0.253-8.765c7.519-7.963,15.626-15.543,24.089-22.527
						c2.642-2.176,6.548-1.804,8.725,0.835c1.576,1.912,1.817,4.487,0.829,6.588C1187.211,682.49,1186.657,683.227,1185.925,683.829
						z M1142.809,729.473c-6.169,8.408-11.891,17.316-17.005,26.481c-1.672,2.987-5.447,4.057-8.435,2.388
						c-2.989-1.666-4.016-5.414-2.394-8.437c5.367-9.604,11.366-18.945,17.835-27.763c2.027-2.76,5.906-3.356,8.667-1.332
						c2.427,1.78,3.18,5.001,1.943,7.63C1143.254,728.796,1143.052,729.142,1142.809,729.473z M1094.524,818.534
						c-3.306-0.893-5.259-4.293-4.366-7.6c2.47-9.15,5.487-18.321,8.95-27.235c0.519-1.358,1.057-2.701,1.601-4.044
						c1.193-3.191,4.91-4.694,8.085-3.392c3.171,1.294,4.687,4.91,3.396,8.083c-0.517,1.256-1.018,2.521-1.514,3.817
						c-3.318,8.531-6.194,17.28-8.552,26.005c-0.096,0.36-0.224,0.704-0.376,1.027
						C1100.491,817.866,1097.468,819.33,1094.524,818.534z"/>
				</g>
				<g style="opacity:0.3;">
					<path style="fill:#91B3FA;" d="M1589.331,997.952c-4.724,9.716-10.086,19.225-15.927,28.272
						c-1.859,2.872-5.695,3.701-8.573,1.841c-2.879-1.859-3.661-5.699-1.841-8.573c5.574-8.624,10.685-17.696,15.192-26.966
						c1.495-3.08,5.208-4.36,8.284-2.863c3.053,1.486,4.341,5.149,2.901,8.211C1589.356,997.9,1589.343,997.927,1589.331,997.952z
						 M1593.866,971.784c-3.234-1.117-4.952-4.647-3.833-7.881c3.361-9.734,6.168-19.77,8.338-29.831
						c0.727-3.324,4.02-5.475,7.371-4.748c3.347,0.721,5.469,4.017,4.751,7.365c-2.276,10.543-5.216,21.061-8.743,31.26
						c-0.075,0.216-0.157,0.42-0.253,0.624C1600.168,971.4,1596.893,972.83,1593.866,971.784z M1554.143,1052.37
						c-6.937,8.29-14.437,16.229-22.295,23.591c-2.499,2.34-6.425,2.212-8.763-0.285c-2.344-2.497-2.212-6.406,0.281-8.762
						c7.498-7.023,14.651-14.593,21.273-22.499c2.198-2.626,6.107-2.971,8.728-0.778c2.208,1.848,2.804,4.904,1.634,7.391
						C1554.78,1051.499,1554.495,1051.949,1554.143,1052.37z M1608.652,910.196c-3.409-0.306-5.924-3.321-5.618-6.73
						c0.923-10.256,1.224-20.668,0.891-30.952c-0.105-3.418,2.58-6.282,5.992-6.397c3.423-0.109,6.288,2.573,6.398,5.996
						c0.352,10.786,0.038,21.71-0.933,32.465c-0.069,0.744-0.265,1.444-0.565,2.082
						C1613.74,908.949,1611.316,910.435,1608.652,910.196z M1506.863,1096.654c-8.707,6.365-17.896,12.261-27.312,17.532
						c-2.987,1.672-6.766,0.604-8.438-2.384c-1.673-2.988-0.611-6.766,2.383-8.439c8.985-5.022,17.746-10.648,26.048-16.722
						c2.763-2.019,6.641-1.419,8.664,1.349c1.385,1.892,1.536,4.315,0.602,6.3
						C1508.384,1095.198,1507.73,1096.019,1506.863,1096.654z M1450.331,1128.308c-9.997,4.102-20.334,7.632-30.719,10.495
						c-3.298,0.91-6.709-1.025-7.619-4.326c-0.912-3.296,1.024-6.713,4.329-7.624c9.901-2.732,19.761-6.102,29.303-10.016
						c3.167-1.3,6.788,0.216,8.088,3.383c0.685,1.673,0.588,3.474-0.128,4.994
						C1452.95,1126.567,1451.823,1127.696,1450.331,1128.308z M1387.842,1145.517c-10.696,1.592-21.584,2.538-32.353,2.818
						c-3.426,0.087-6.269-2.614-6.358-6.038c-0.09-3.421,2.618-6.265,6.034-6.357c10.272-0.263,20.652-1.167,30.848-2.69
						c3.387-0.504,6.543,1.833,7.044,5.22c0.191,1.257-0.015,2.478-0.518,3.546
						C1391.686,1143.83,1389.973,1145.198,1387.842,1145.517z"/>
					<path style="fill:#91B3FA;" d="M1612.738,843.08c0.509-1.082,0.711-2.322,0.512-3.593c-0.819-5.242-1.799-10.483-2.907-15.58
						c-0.729-3.343-4.031-5.468-7.377-4.741c-3.336,0.736-5.462,4.031-4.741,7.377c1.059,4.86,1.992,9.861,2.777,14.863
						c0.529,3.383,3.703,5.695,7.083,5.165C1610.196,846.239,1611.892,844.88,1612.738,843.08z"/>
				</g>
				<g>
					<path style="fill:#91B3FA;" d="M1518.285,772.331c-0.579-1.208-1.86-1.915-3.19-1.762l-37.953,4.37
						c-11.174-13.909-24.646-26.135-40.115-36.024l0.253-38.178c0.009-1.339-0.833-2.536-2.096-2.981l-43.221-15.225
						c-1.263-0.446-2.67-0.04-3.501,1.008l-23.731,29.908c-18.252-1.99-36.413-0.907-53.837,2.928l-26.834-27.192
						c-0.941-0.953-2.383-1.204-3.59-0.626l-41.328,19.796c-1.208,0.578-1.916,1.859-1.762,3.19l4.37,37.952
						c-13.909,11.173-26.136,24.646-36.026,40.116l-38.178-0.254c-1.339-0.009-2.536,0.833-2.981,2.096l-15.226,43.222
						c-0.445,1.263-0.039,2.669,1.01,3.501l29.908,23.732c-1.99,18.252-0.907,36.414,2.929,53.837l-27.193,26.834
						c-0.953,0.94-1.205,2.382-0.626,3.59l19.796,41.329c0.578,1.207,1.859,1.915,3.189,1.762l37.954-4.37
						c11.173,13.909,24.644,26.136,40.114,36.025l-0.253,38.178c-0.01,1.339,0.832,2.536,2.096,2.981l43.222,15.226
						c1.263,0.445,2.669,0.039,3.501-1.01l23.731-29.908c18.252,1.99,36.414,0.906,53.838-2.929l26.833,27.192
						c0.94,0.953,2.382,1.204,3.59,0.626l41.328-19.796c1.208-0.579,1.915-1.86,1.763-3.19l-4.371-37.953
						c13.909-11.173,26.136-24.645,36.025-40.115l38.178,0.254c1.339,0.008,2.536-0.833,2.981-2.096l15.225-43.221
						c0.445-1.263,0.04-2.669-1.01-3.501l-29.907-23.731c1.99-18.252,0.906-36.413-2.929-53.837l27.193-26.834
						c0.953-0.94,1.204-2.383,0.626-3.59L1518.285,772.331z"/>
					<g>
						<path style="fill:#BDD0FB;" d="M1385.792,905.84c-6.924,10.44-17.502,17.554-29.78,20.034
							c-12.273,2.483-24.781,0.035-35.217-6.894c-21.54-14.295-27.417-43.404-13.138-64.999
							c14.305-21.539,43.46-27.43,64.993-13.134c10.436,6.925,17.551,17.5,20.033,29.776c2.016,9.979,0.775,20.113-3.481,29.161
							C1388.224,901.864,1387.084,903.889,1385.792,905.84z M1327.647,908.65c7.678,5.097,16.878,6.898,25.912,5.073
							c9.027-1.825,16.807-7.06,21.902-14.735l0,0c5.085-7.683,6.894-16.877,5.069-25.91c-1.821-9.028-7.06-16.807-14.732-21.9
							c-15.845-10.517-37.29-6.184-47.812,9.659c-0.947,1.431-1.775,2.905-2.485,4.414
							C1308.345,880.465,1313.235,899.084,1327.647,908.65z"/>
					</g>
					<path style="fill:#BDD0FB;" d="M1451.447,930.044c1.669-3.55,3.171-7.212,4.505-10.986c2.643-7.497,4.527-15.271,5.599-23.125
						c0.046-0.353,0.091-0.707,0.137-1.06c0.349-2.733-1.138-5.275-3.503-6.391c-0.575-0.27-1.204-0.456-1.866-0.54
						c-3.396-0.433-6.484,1.981-6.927,5.368c-0.931,7.343-2.661,14.617-5.132,21.622l-0.001,0.003
						c-0.134,0.385-0.276,0.77-0.414,1.15c-6.001,16.528-15.894,30.933-28.724,42.282c-6.965,6.16-14.803,11.417-23.366,15.615
						c-0.07,0.034-0.139,0.068-0.209,0.103c-0.216,0.102-0.426,0.208-0.64,0.308c-25.145,12.042-53.474,13.575-79.769,4.311
						c-3.404-1.196-6.718-2.558-9.939-4.073c-21.669-10.195-39.028-27.392-49.517-49.283c-12.042-25.145-13.57-53.472-4.307-79.764
						c9.267-26.274,28.213-47.409,53.353-59.457c25.144-12.042,53.474-13.575,79.769-4.311c3.347,1.176,6.621,2.522,9.809,4.022
						c13.825,6.506,26.069,15.961,35.824,27.734c0.602,0.725,1.332,1.279,2.133,1.653c2.104,0.989,4.686,0.749,6.594-0.835
						c2.63-2.192,3.005-6.09,0.815-8.732c-10.917-13.172-24.618-23.754-40.079-31.033c-3.571-1.68-7.232-3.185-10.974-4.503
						c-29.423-10.364-61.116-8.65-89.249,4.826c-28.127,13.476-49.341,37.073-59.69,66.514
						c-10.366,29.419-8.654,61.111,4.826,89.243c11.728,24.491,31.151,43.728,55.395,55.135c3.599,1.693,7.31,3.218,11.115,4.558
						C1363.972,1010.46,1426.277,983.557,1451.447,930.044z"/>
				</g>
			</g>
		</g>
		<g>
			<g>
				
					<linearGradient id="SVGID_00000160890213464122038640000010950196437381318054_" gradientUnits="userSpaceOnUse" x1="2489.4585" y1="659.8315" x2="2638.9741" y2="-869.3073">
					<stop  offset="0" style="stop-color:#09005D"/>
					<stop  offset="1" style="stop-color:#1A0F91"/>
				</linearGradient>
				<path style="fill:url(#SVGID_00000160890213464122038640000010950196437381318054_);" d="M2777.257,1257.009
					c-4.54,0-8.303-3.591-8.482-8.167c-0.149-3.813-16.735-382.832-182.01-519.015c-48.695-40.123-106.253-55.382-171.013-45.353
					C2279,705.637,2184.374,806.371,2134.498,983.881c-37.585,133.766-34.094,263.08-34.054,264.37
					c0.143,4.689-3.541,8.608-8.229,8.754c-4.706,0.007-8.608-3.534-8.754-8.23c-0.04-1.311-3.63-132.884,34.578-269.122
					c22.555-80.426,55.056-146.848,96.603-197.417c52.355-63.727,119.145-102.271,198.509-114.553
					c69.783-10.802,131.838,5.701,184.436,49.047c72.08,59.404,125.659,167.044,159.252,319.938
					c24.872,113.205,28.877,210.549,28.914,211.518c0.183,4.689-3.471,8.635-8.16,8.817
					C2777.483,1257.006,2777.37,1257.009,2777.257,1257.009z"/>
				
					<linearGradient id="SVGID_00000007427550333838513410000016136399770860512138_" gradientUnits="userSpaceOnUse" x1="2490.6101" y1="2026.3478" x2="-1347.118" y2="3026.9453">
					<stop  offset="0" style="stop-color:#4F52FF"/>
					<stop  offset="1" style="stop-color:#4042E2"/>
				</linearGradient>
				<path style="fill:url(#SVGID_00000007427550333838513410000016136399770860512138_);" d="M1712.804,1144.684
					c1.284-8.704,8.681-15.198,17.478-15.343l960.309-15.873l314.437,1874.529H1487.693
					C1435.574,2987.998,1712.804,1144.684,1712.804,1144.684z"/>
				
					<linearGradient id="SVGID_00000017505531823065561400000017156233504174158777_" gradientUnits="userSpaceOnUse" x1="4284.2876" y1="1376.8755" x2="3557.0974" y2="1743.868">
					<stop  offset="0" style="stop-color:#4F52FF"/>
					<stop  offset="1" style="stop-color:#4042E2"/>
				</linearGradient>
				<path style="fill:url(#SVGID_00000017505531823065561400000017156233504174158777_);" d="M2858.527,1127.761l-167.935-14.293
					l314.437,1874.529h188.096c38.136,0,66.637-35.048,58.863-72.382L2884.466,1150.75
					C2881.851,1138.196,2871.304,1128.848,2858.527,1127.761z"/>
				
					<linearGradient id="SVGID_00000056401424703996611900000018077894053637678501_" gradientUnits="userSpaceOnUse" x1="2324.5515" y1="-260.1353" x2="2287.1721" y2="297.1508">
					<stop  offset="0" style="stop-color:#09005D"/>
					<stop  offset="1" style="stop-color:#1A0F91"/>
				</linearGradient>
				<path style="fill:url(#SVGID_00000056401424703996611900000018077894053637678501_);" d="M2567.631,1252.977
					c-4.54,0-8.302-3.591-8.482-8.167c-0.149-3.813-16.735-382.832-182.01-519.014c-48.695-40.123-106.243-55.375-171.013-45.353
					c-136.753,21.162-231.379,121.896-281.255,299.406c-37.585,133.766-34.094,263.079-34.054,264.37
					c0.143,4.689-3.541,8.608-8.23,8.754c-4.566,0.07-8.608-3.537-8.754-8.23c-0.04-1.311-3.63-132.884,34.578-269.122
					c22.556-80.426,55.056-146.848,96.603-197.417c52.355-63.727,119.145-102.271,198.509-114.553
					c69.784-10.808,131.838,5.698,184.436,49.047c72.08,59.404,125.659,167.044,159.252,319.938
					c24.872,113.205,28.877,210.549,28.914,211.517c0.183,4.689-3.471,8.635-8.16,8.817
					C2567.857,1252.974,2567.744,1252.977,2567.631,1252.977z"/>
			</g>
		</g>
		<g>
			
				<linearGradient id="SVGID_00000031919311874902241860000006245549087748658586_" gradientUnits="userSpaceOnUse" x1="1786.6469" y1="591.1138" x2="1936.1626" y2="-938.0253">
				<stop  offset="0" style="stop-color:#09005D"/>
				<stop  offset="1" style="stop-color:#1A0F91"/>
			</linearGradient>
			<path style="fill:url(#SVGID_00000031919311874902241860000006245549087748658586_);" d="M1966.952,1942.3
				c-0.137-3.521-15.446-353.601-168.412-479.649c-45.323-37.346-98.867-51.553-159.14-42.223
				c-126.858,19.632-214.593,112.954-260.768,277.373c-34.693,123.534-31.463,242.902-31.426,244.093l-11.666,0.361
				c-0.037-1.207-3.335-122.125,31.785-247.357c20.706-73.835,50.523-134.787,88.624-181.164
				c47.919-58.328,109.041-93.601,181.667-104.841c63.704-9.858,120.355,5.199,168.357,44.76
				c66.057,54.439,115.195,153.243,146.046,293.666c22.879,104.131,26.562,193.638,26.596,194.53L1966.952,1942.3z"/>
			<path style="fill:#BDD0FB;" d="M856.532,2914.885l155.05-1022.051c1.481-9.761,9.792-17.027,19.664-17.19l895.917-14.808
				l193.796,1153.823H932.8C882.401,3014.659,849.177,2964.744,856.532,2914.885z"/>
			<path style="fill:#91B3FA;" d="M2099.897,1875.536l-172.734-14.7l193.796,1153.823l191.314-4.941
				c18.885-0.488,32.712-17.97,28.835-36.459l-227.831-1086.729C2111.527,1880.446,2106.204,1876.073,2099.897,1875.536z"/>
			
				<linearGradient id="SVGID_00000163059964089422771640000010021015430815526291_" gradientUnits="userSpaceOnUse" x1="1651.5455" y1="440.2509" x2="1580.1862" y2="997.5369">
				<stop  offset="0" style="stop-color:#09005D"/>
				<stop  offset="1" style="stop-color:#1A0F91"/>
			</linearGradient>
			<path style="fill:url(#SVGID_00000163059964089422771640000010021015430815526291_);" d="M1773.814,1938.586
				c-0.137-3.521-15.444-353.6-168.412-479.649c-45.319-37.345-98.864-51.551-159.14-42.223
				c-126.858,19.633-214.593,112.954-260.768,277.373c-34.693,123.534-31.463,242.902-31.426,244.093l-11.666,0.361
				c-0.037-1.207-3.335-122.125,31.785-247.357c20.706-73.835,50.523-134.786,88.624-181.164
				c47.919-58.328,109.041-93.601,181.667-104.841c63.707-9.858,120.355,5.2,168.358,44.76
				c66.056,54.439,115.193,153.243,146.045,293.666c22.879,104.131,26.562,193.638,26.596,194.53L1773.814,1938.586z"/>
		</g>
		<g>
			
				<linearGradient id="SVGID_00000142162625514598805800000017081286486948865689_" gradientUnits="userSpaceOnUse" x1="1128.994" y1="526.8096" x2="1278.5099" y2="-1002.3301">
				<stop  offset="0" style="stop-color:#09005D"/>
				<stop  offset="1" style="stop-color:#1A0F91"/>
			</linearGradient>
			<path style="fill:url(#SVGID_00000142162625514598805800000017081286486948865689_);" d="M1124.35,2278.367
				c-0.073-1.889-8.294-189.678-90.095-257.081c-24.031-19.801-52.437-27.331-84.412-22.383
				c-161.958,25.065-156.041,276.594-155.962,279.132l-9.51,0.294c-0.02-0.652-1.802-66.007,17.173-133.672
				c25.399-90.567,76.177-144.218,146.843-155.155c34.779-5.383,65.71,2.844,91.926,24.45
				c85.09,70.125,93.238,256.161,93.543,264.046L1124.35,2278.367z"/>
			<path style="fill:#91B3FA;" d="M627.265,2200.313l501.684-8.292l147.284,835.206H526.507
				c-25.614,0,77.694-728.565,90.448-817.835C617.691,2204.238,622.06,2200.399,627.265,2200.313z"/>
			<path style="fill:#7D97F4;" d="M1217.241,2199.535l-88.291-7.514l147.284,835.206h98.62c11.507,0,20.122-10.553,17.817-21.828
				l-162.344-794.223C1229.028,2204.824,1223.701,2200.085,1217.241,2199.535z"/>
			
				<linearGradient id="SVGID_00000044885646394808995940000013449870280687179141_" gradientUnits="userSpaceOnUse" x1="1234.5557" y1="1108.7959" x2="1037.4667" y2="1693.2662">
				<stop  offset="0" style="stop-color:#09005D"/>
				<stop  offset="1" style="stop-color:#1A0F91"/>
			</linearGradient>
			<path style="fill:url(#SVGID_00000044885646394808995940000013449870280687179141_);" d="M1020.357,2276.367
				c-0.073-1.889-8.294-189.679-90.095-257.081c-24.032-19.802-52.437-27.33-84.412-22.383
				c-161.958,25.064-156.041,276.594-155.962,279.132l-9.51,0.294c-0.02-0.652-1.802-66.007,17.173-133.672
				c25.399-90.567,76.177-144.219,146.843-155.155c34.78-5.382,65.707,2.843,91.925,24.45
				c85.09,70.124,93.238,256.161,93.543,264.046L1020.357,2276.367z"/>
		</g>
		<g>
			<g>
				
					<linearGradient id="SVGID_00000045604549113148114970000007053305820176230589_" gradientUnits="userSpaceOnUse" x1="-3555.7485" y1="3052.3816" x2="-4319.0503" y2="3882.6401" gradientTransform="matrix(-1 0 0 1 -1226.8 0)">
					<stop  offset="0" style="stop-color:#09005D"/>
					<stop  offset="1" style="stop-color:#1A0F91"/>
				</linearGradient>
				<path style="fill:url(#SVGID_00000045604549113148114970000007053305820176230589_);" d="M2570.229,3114.232
					c0,0,7.905,44.751,11.781,89.05c1.515,17.311-11.834,32.345-29.197,33.068c-58.993,2.458-185.181,7.235-230.462,5.214
					c-6.806-0.303-11.257-7.273-8.738-13.604l0,0c2.11-5.305,6.182-9.594,11.371-11.979l208.44-95.799L2570.229,3114.232z"/>
				
					<linearGradient id="SVGID_00000171713819004573601680000001390326529387737527_" gradientUnits="userSpaceOnUse" x1="-3803.5051" y1="3114.0464" x2="-3735.7048" y2="3114.0464" gradientTransform="matrix(-1 0 0 1 -1226.8 0)">
					<stop  offset="0" style="stop-color:#FEBBBA"/>
					<stop  offset="1" style="stop-color:#FF928E"/>
				</linearGradient>
				<path style="fill:url(#SVGID_00000171713819004573601680000001390326529387737527_);" d="M2576.705,3087.937l-6.351,53.528
					c0,0-36.513,16.997-61.449-2.141l15.121-59.654L2576.705,3087.937z"/>
				
					<linearGradient id="SVGID_00000005982932294560866590000014409938348704578954_" gradientUnits="userSpaceOnUse" x1="9083.4795" y1="1832.2339" x2="9267.4902" y2="3020.6401" gradientTransform="matrix(1 0 0 1 -6580.5273 0)">
					<stop  offset="0" style="stop-color:#09005D"/>
					<stop  offset="1" style="stop-color:#1A0F91"/>
				</linearGradient>
				<path style="fill:url(#SVGID_00000005982932294560866590000014409938348704578954_);" d="M2571.932,2081.587
					c2.744,13.979,14.725,697.565-58.344,1003.905c-1.194,4.998,1.341,10.15,6.097,12.093c11.208,4.579,33.18,11.21,59.51,12.095
					c8.155,0.273,15.467-5.027,17.767-12.853c20.886-71.076,120.973-427.182,134.03-767.36c14.588-380.117,0-12.943,0-12.943
					l-8.557-234.964L2571.932,2081.587z"/>
				
					<linearGradient id="SVGID_00000049920359477389345910000016670166303553489319_" gradientUnits="userSpaceOnUse" x1="-3726.9861" y1="2894.959" x2="-4490.2817" y2="3725.2114" gradientTransform="matrix(-1 0 0 1 -1226.8 0)">
					<stop  offset="0" style="stop-color:#09005D"/>
					<stop  offset="1" style="stop-color:#1A0F91"/>
				</linearGradient>
				<path style="fill:url(#SVGID_00000049920359477389345910000016670166303553489319_);" d="M2810.005,3137.577
					c0,0,12.583,22.592,24.766,82.625c2.198,10.842-5.376,21.218-16.386,22.301c-19.479,1.915-49.468,4.377-73.489,4.214
					c-11.073-0.077-19.715-9.719-18.38-20.712c2.66-21.913,10.95-57.864,36.557-85.884L2810.005,3137.577z"/>
				
					<linearGradient id="SVGID_00000149353452874148811310000013444517986409077409_" gradientUnits="userSpaceOnUse" x1="-4047.8567" y1="3110.5698" x2="-3989.3176" y2="3110.5698" gradientTransform="matrix(-1 0 0 1 -1226.8 0)">
					<stop  offset="0" style="stop-color:#FEBBBA"/>
					<stop  offset="1" style="stop-color:#FF928E"/>
				</linearGradient>
				<path style="fill:url(#SVGID_00000149353452874148811310000013444517986409077409_);" d="M2821.056,3068.728l-14.841,80.95
					c0,0-14.671,10.914-43.698,3.001l7.083-87.096L2821.056,3068.728z"/>
				
					<linearGradient id="SVGID_00000178203275126099235380000011470730004641682614_" gradientUnits="userSpaceOnUse" x1="9245.7891" y1="1807.103" x2="9429.8008" y2="2995.5107" gradientTransform="matrix(1 0 0 1 -6580.5273 0)">
					<stop  offset="0" style="stop-color:#09005D"/>
					<stop  offset="1" style="stop-color:#1A0F91"/>
				</linearGradient>
				<path style="fill:url(#SVGID_00000178203275126099235380000011470730004641682614_);" d="M2861.146,2102.565
					c59.763,360.666-12.962,891.415-37.491,995.296c-1.501,6.359-6.634,11.232-13.08,12.301
					c-10.948,1.815-28.973,3.295-46.744-1.866c-6.122-1.776-10.423-7.301-10.673-13.671c-3.29-83.984,2.633-599.567-53.051-803.328
					c-2.823-10.326-9.129-19.332-17.853-25.534l-108.079-76.836l-8.287-124.197L2861.146,2102.565z"/>
				<path style="fill:#91B3FA;" d="M2508.905,1432.036c0,0,274.542-68.419,466.543,33.264l-114.302,637.264
					c0,0-181.847,14.66-295.259-21.416L2508.905,1432.036z"/>
				
					<linearGradient id="SVGID_00000091721761298419179550000018067471765094888591_" gradientUnits="userSpaceOnUse" x1="2812.561" y1="1640.1597" x2="2736.1079" y2="1268.0881">
					<stop  offset="0" style="stop-color:#FEBBBA"/>
					<stop  offset="1" style="stop-color:#FF928E"/>
				</linearGradient>
				<path style="fill:url(#SVGID_00000091721761298419179550000018067471765094888591_);" d="M2816.813,1241.111l21.007,180.833
					c1.343,2.558,0.686,5.715-1.605,7.474c-14.074,10.817-65.694,43.737-138.774,11.547c-7.613-3.353-13.429-9.82-15.719-17.818
					l29.73-156.72L2816.813,1241.111z"/>
				<g>
					
						<linearGradient id="SVGID_00000040545483189308903750000004239596534741805204_" gradientUnits="userSpaceOnUse" x1="-9339.0713" y1="-3943.6248" x2="-9403.8369" y2="-4157.2363" gradientTransform="matrix(-0.9037 -0.428 -0.428 0.9037 -7472.7866 853.2395)">
						<stop  offset="0" style="stop-color:#FEBBBA"/>
						<stop  offset="1" style="stop-color:#FF928E"/>
					</linearGradient>
					<path style="fill:url(#SVGID_00000040545483189308903750000004239596534741805204_);" d="M2648.294,1146.84
						c0,0-26.744,130.672-5.606,174.049c21.138,43.377,94.565,18.187,148.609-38.017l9.457-135.377L2648.294,1146.84z"/>
					
						<linearGradient id="SVGID_00000181059729734214854540000002375165815531713980_" gradientUnits="userSpaceOnUse" x1="-9397.501" y1="-4315.812" x2="-9343.3252" y2="-4006.8108" gradientTransform="matrix(-0.9037 -0.428 -0.428 0.9037 -7472.7866 853.2395)">
						<stop  offset="0" style="stop-color:#09005D"/>
						<stop  offset="1" style="stop-color:#1A0F91"/>
					</linearGradient>
					<path style="fill:url(#SVGID_00000181059729734214854540000002375165815531713980_);" d="M2770.778,1223.801
						c-2.985-0.392-4.911-3.334-4.041-6.216c2.645-8.763,7.245-26.407,6.256-40.377c0,0,8.755-10.089-32.198-7.977
						c-40.954,2.11-102.188,4.702-123.771-24.33c-21.042-28.304-13.841-117.192,53.905-68.011c2.577,1.872,6.246,0.848,7.394-2.123
						c4.954-12.821,19.684-40.748,52.883-36.227c31.069,4.23,40.083,23.428,42.69,33.675c0.768,3.014,4.117,4.547,6.883,3.125
						c13.096-6.732,45.719-18.813,71.32,10.765c21.087,24.362,17.458,42.74,12.175,52.76c-1.713,3.245,0.588,7.084,4.259,7.123
						c9.94,0.105,23.991,4.369,29.105,26.079c7.071,30.015-26.718,37.137-36.515,38.56c-1.604,0.235-3,1.22-3.705,2.68
						c-5.433,11.295-30.595,59.872-68.56,76.014c-3.287,1.4-6.916-1.185-6.755-4.754l2.446-54.461
						c0.114-2.53-1.727-4.725-4.237-5.055L2770.778,1223.801z"/>
					
						<linearGradient id="SVGID_00000170965634856543919080000014206838247980155789_" gradientUnits="userSpaceOnUse" x1="-9405.2773" y1="-3944.6196" x2="-9463.5488" y2="-4136.8115" gradientTransform="matrix(-0.9037 -0.428 -0.428 0.9037 -7472.7866 853.2395)">
						<stop  offset="0" style="stop-color:#FEBBBA"/>
						<stop  offset="1" style="stop-color:#FF928E"/>
					</linearGradient>
					<path style="fill:url(#SVGID_00000170965634856543919080000014206838247980155789_);" d="M2766.007,1232.836
						c0,0,34.102-41.915,44.498-18.139c10.396,23.774-27.95,47.104-51.272,43.968L2766.007,1232.836z"/>
				</g>
				
					<linearGradient id="SVGID_00000116941695082706324910000007121282830592511131_" gradientUnits="userSpaceOnUse" x1="4330.7388" y1="2110.542" x2="4340.2412" y2="1715.234" gradientTransform="matrix(1 0 0 1 -1388.9229 0)">
					<stop  offset="0" style="stop-color:#FEBBBA"/>
					<stop  offset="1" style="stop-color:#FF928E"/>
				</linearGradient>
				<path style="fill:url(#SVGID_00000116941695082706324910000007121282830592511131_);" d="M3025.665,1815.111
					c0,0-18.722,239.3-176.255,249.621c0,0-67.52-6.191-96.829,16.828c-29.308,23.017-15.105,58.478-15.105,58.478l127.097-15.497
					c0,0,181.769,30.266,291.063-273.984L3025.665,1815.111z"/>
				<path style="fill:#91B3FA;" d="M2975.448,1465.301c0,0,215.633,128.27,180.188,385.256c0,0-77.031,33.386-133.04-11.369
					c0,0-43.646-166.964-138.443-175.276L2975.448,1465.301z"/>
				
					<linearGradient id="SVGID_00000041274680468458401470000009591615805421529734_" gradientUnits="userSpaceOnUse" x1="3564.8472" y1="1665.8831" x2="3572.3154" y2="1355.1877" gradientTransform="matrix(1 0 0 1 -1388.9229 0)">
					<stop  offset="0" style="stop-color:#FEBBBA"/>
					<stop  offset="1" style="stop-color:#FF928E"/>
				</linearGradient>
				<path style="fill:url(#SVGID_00000041274680468458401470000009591615805421529734_);" d="M2365.641,1557.256
					c0,0-103.552,48.13-224.661-80.364c-82.77-87.817-133.409-33.972-149.412,1.476c-16.006,35.448,22.279,32.494,35.629,32.494
					c13.351,0,15.008-38.564,38.549-33.314c23.541,5.253,16.615-1.779,18.092,21.853c1.477,23.631,128.034,290.485,284.589,160.515
					L2365.641,1557.256z"/>
				<g>
					
						<linearGradient id="SVGID_00000004510249489313506660000011405334945381235109_" gradientUnits="userSpaceOnUse" x1="2691.3511" y1="1022.0113" x2="2161.2473" y2="1837.5544">
						<stop  offset="0" style="stop-color:#FF928E"/>
						<stop  offset="1" style="stop-color:#FE7062"/>
					</linearGradient>
					<path style="fill:url(#SVGID_00000004510249489313506660000011405334945381235109_);" d="M1889.44,1594.541l355.827-19.958
						c32.445-1.819,60.905,19.083,65.057,47.779l79.683,550.777c4.75,32.834-23.984,61.911-61.178,61.911h-464.295
						c-35.233,0-63.308-26.224-61.61-57.546l28.787-530.819C1833.225,1618.754,1858.084,1596.3,1889.44,1594.541z"/>
					<path style="fill:#BDD0FB;" d="M1949.534,1650.501c-5.468,0-10.011-4.313-10.238-9.827
						c-0.298-7.071-5.874-173.439,111.214-191.738c25.051-3.893,47.274,1.976,66.062,17.498
						c57.001,47.111,61.818,168.324,61.995,173.459c0.197,5.662-4.233,10.402-9.892,10.602c-5.621,0.087-10.407-4.234-10.605-9.895
						c-0.039-1.162-4.68-117.154-54.584-158.369c-14.251-11.778-30.555-16.017-49.811-13.026
						c-99.198,15.496-93.954,169.064-93.889,170.614c0.237,5.661-4.159,10.435-9.818,10.676
						C1949.821,1650.501,1949.677,1650.501,1949.534,1650.501z"/>
				</g>
				<path style="fill:#91B3FA;" d="M2508.905,1432.036l-167.062,125.219c0,0-2.955,93.812,19.2,138.171l186.094-45.734
					L2508.905,1432.036z"/>
			</g>
			<g>
				<g>
					<g>
						<g>
							<g>
								<g>
									
										<linearGradient id="SVGID_00000158723067091382498220000003456680425532126648_" gradientUnits="userSpaceOnUse" x1="197.3309" y1="-7933.3911" x2="-862.8729" y2="-4222.6792" gradientTransform="matrix(-1 0 0 1 -739.5045 0)">
										<stop  offset="0" style="stop-color:#FF928E"/>
										<stop  offset="1" style="stop-color:#FE7062"/>
									</linearGradient>
									<path style="fill:url(#SVGID_00000158723067091382498220000003456680425532126648_);" d="M1446.287,2412.303v148.335
										c0,55.241,20.776,108.445,50.72,154.846l28.339,36.247c32.807,50.794,88.969,79.844,149.422,79.844h620.676l4.701-15.957
										l152.128-557.344l127.652-68.827l-19.009-34.762l-142.624,77.332l-48.906,180.288H1446.287z M1490.576,2456.592h867.927
										l-61.219,225.848l-32.296,119.607h-590.22c-46.86,0-90.851-27.419-116.249-66.767l-25.797-41.135
										c-25.807-39.911-42.146-85.983-42.146-133.508V2456.592z"/>
								</g>
								<g>
									
										<linearGradient id="SVGID_00000122695844099067675290000010789532499243949442_" gradientUnits="userSpaceOnUse" x1="411.2147" y1="-7872.2524" x2="-648.9875" y2="-4161.5454" gradientTransform="matrix(-1 0 0 1 -739.5045 0)">
										<stop  offset="0" style="stop-color:#FF928E"/>
										<stop  offset="1" style="stop-color:#FE7062"/>
									</linearGradient>
									<path style="fill:url(#SVGID_00000122695844099067675290000010789532499243949442_);" d="M1531.991,3033.854
										c0,10.987,8.943,22.119,19.979,22.119h728.246c11.039,0,19.376-15.595,19.376-26.582v-343.401
										c0-3.783-0.746-3.395-2.585-6.41l-32.019,122.468h-9.685v209.636H1551.97
										C1540.934,3011.684,1531.991,3022.816,1531.991,3033.854z"/>
								</g>
							</g>
							<g>
								
									<linearGradient id="SVGID_00000065049262597301090300000017917442056355285916_" gradientUnits="userSpaceOnUse" x1="341.033" y1="-7892.3188" x2="-719.1661" y2="-4181.6235" gradientTransform="matrix(-1 0 0 1 -739.5045 0)">
									<stop  offset="0" style="stop-color:#FF928E"/>
									<stop  offset="1" style="stop-color:#FE7062"/>
								</linearGradient>
								
									<rect x="1909.709" y="2433.152" style="fill:url(#SVGID_00000065049262597301090300000017917442056355285916_);" width="26.583" height="373.818"/>
								<g>
									
										<linearGradient id="SVGID_00000009556689668766979460000008452972217334214282_" gradientUnits="userSpaceOnUse" x1="123.9391" y1="-7954.3345" x2="-936.2687" y2="-4243.6074" gradientTransform="matrix(-1 0 0 1 -739.5045 0)">
										<stop  offset="0" style="stop-color:#FF928E"/>
										<stop  offset="1" style="stop-color:#FE7062"/>
									</linearGradient>
									
										<rect x="2144.522" y="2433.152" style="fill:url(#SVGID_00000009556689668766979460000008452972217334214282_);" width="26.582" height="373.818"/>
									
										<linearGradient id="SVGID_00000010276974979145885730000011313954394381589131_" gradientUnits="userSpaceOnUse" x1="553.0084" y1="-7831.7739" x2="-507.1907" y2="-4121.0781" gradientTransform="matrix(-1 0 0 1 -739.5045 0)">
										<stop  offset="0" style="stop-color:#FF928E"/>
										<stop  offset="1" style="stop-color:#FE7062"/>
									</linearGradient>
									
										<rect x="1680.435" y="2433.152" style="fill:url(#SVGID_00000010276974979145885730000011313954394381589131_);" width="26.583" height="373.818"/>
								</g>
							</g>
							<g>
								
									<linearGradient id="SVGID_00000103256504407318885050000001701958586542505885_" gradientUnits="userSpaceOnUse" x1="330.2382" y1="-7895.4146" x2="-729.9667" y2="-4184.6987" gradientTransform="matrix(-1 0 0 1 -739.5045 0)">
									<stop  offset="0" style="stop-color:#FF928E"/>
									<stop  offset="1" style="stop-color:#FE7062"/>
								</linearGradient>
								
									<rect x="1483.776" y="2543.114" style="fill:url(#SVGID_00000103256504407318885050000001701958586542505885_);" width="864.629" height="23.772"/>
								
									<linearGradient id="SVGID_00000023987037527398306880000008753955128122306733_" gradientUnits="userSpaceOnUse" x1="372.0463" y1="-7883.4712" x2="-688.1572" y2="-4172.7598" gradientTransform="matrix(-1 0 0 1 -739.5045 0)">
									<stop  offset="0" style="stop-color:#FF928E"/>
									<stop  offset="1" style="stop-color:#FE7062"/>
								</linearGradient>
								
									<rect x="1505.433" y="2673.236" style="fill:url(#SVGID_00000023987037527398306880000008753955128122306733_);" width="805.229" height="23.773"/>
							</g>
						</g>
						
							<linearGradient id="SVGID_00000178201072721174756770000012495819314802452651_" gradientUnits="userSpaceOnUse" x1="242.0489" y1="-7920.5986" x2="-818.1527" y2="-4209.8936" gradientTransform="matrix(-1 0 0 1 -739.5045 0)">
							<stop  offset="0" style="stop-color:#FF928E"/>
							<stop  offset="1" style="stop-color:#FE7062"/>
						</linearGradient>
						<path style="fill:url(#SVGID_00000178201072721174756770000012495819314802452651_);" d="M2101.077,3169.134
							c0,47.424,38.444,85.866,85.865,85.866c47.424,0,85.866-38.442,85.866-85.866c0-47.421-38.443-85.865-85.866-85.865
							C2139.521,3083.269,2101.077,3121.713,2101.077,3169.134z M2135.116,3169.134c0-28.622,23.202-51.826,51.825-51.826
							c28.622,0,51.827,23.204,51.827,51.826c0,28.623-23.206,51.827-51.827,51.827
							C2158.319,3220.961,2135.116,3197.757,2135.116,3169.134z"/>
						
							<linearGradient id="SVGID_00000140720644784336915690000018333700938289393060_" gradientUnits="userSpaceOnUse" x1="735.3694" y1="-7779.6465" x2="-324.8323" y2="-4068.9412" gradientTransform="matrix(-1 0 0 1 -739.5045 0)">
							<stop  offset="0" style="stop-color:#FF928E"/>
							<stop  offset="1" style="stop-color:#FE7062"/>
						</linearGradient>
						<path style="fill:url(#SVGID_00000140720644784336915690000018333700938289393060_);" d="M1567.484,3169.134
							c0,47.424,38.444,85.866,85.865,85.866c47.424,0,85.866-38.442,85.866-85.866c0-47.421-38.442-85.865-85.866-85.865
							C1605.928,3083.269,1567.484,3121.713,1567.484,3169.134z M1601.524,3169.134c0-28.622,23.202-51.826,51.826-51.826
							c28.622,0,51.825,23.204,51.825,51.826c0,28.623-23.204,51.827-51.825,51.827
							C1624.726,3220.961,1601.524,3197.757,1601.524,3169.134z"/>
					</g>
					
						<linearGradient id="SVGID_00000127016344891714797490000012152031401155125435_" gradientUnits="userSpaceOnUse" x1="-380.0519" y1="-8098.3384" x2="-1440.2539" y2="-4387.6323" gradientTransform="matrix(-1 0 0 1 -739.5045 0)">
						<stop  offset="0" style="stop-color:#FF928E"/>
						<stop  offset="1" style="stop-color:#FE7062"/>
					</linearGradient>
					<path style="fill:url(#SVGID_00000127016344891714797490000012152031401155125435_);" d="M2472.45,2189.421
						c0,22.279,18.062,40.34,40.341,40.34h134.233c22.279,0,40.341-18.061,40.341-40.34l0,0c0-22.281-18.062-40.341-40.341-40.341
						h-134.233C2490.512,2149.08,2472.45,2167.141,2472.45,2189.421L2472.45,2189.421z"/>
				</g>
			</g>
		</g>
	</g>
</g>
</svg>
